<svg width="275" height="202" viewBox="0 0 275 202" fill="none" xmlns="http://www.w3.org/2000/svg">
<path d="M104.468 38.2386L102.311 38.9003L100.863 35.5472L97.5896 36.1273L96.0954 33.7944L94.9136 34.5515L96.9125 37.6708L100.015 37.1214L101.521 40.61L104.768 39.6128L104.468 38.2386Z" fill="#50BFA5"/>
<path d="M242.797 158.839L240.639 159.501L239.191 156.148L235.918 156.728L234.424 154.395L233.244 155.152L235.241 158.27L238.343 157.722L239.85 161.211L243.097 160.214L242.797 158.839Z" fill="#50BFA5"/>
<path d="M132.201 14.6697C126.318 15.6361 124.572 23.3565 129.462 26.8097C130.341 27.4298 130.949 28.3624 131.207 29.4072L132.097 32.9974C132.343 33.9868 133.306 34.6224 134.313 34.4577L136.541 34.0899C137.547 33.9253 138.258 33.0143 138.172 31.9987C137.863 28.29 137.481 26.9451 138.686 25.2924C142.212 20.4558 138.084 13.7002 132.201 14.6697Z" fill="#F7CC7F"/>
<path d="M135.548 19.8571C135.365 20.2788 135.435 20.8174 135.478 21.4375C135.959 21.1636 136.518 20.8205 136.699 20.3188C136.827 19.9664 136.684 19.4693 136.325 19.377C136.285 19.3678 135.678 19.5617 135.548 19.8571ZM130.096 22.1346C130.396 22.4563 130.898 22.5994 131.63 22.5655C131.504 22.0254 131.317 21.5406 130.946 21.1959C130.109 20.4173 129.595 21.593 130.096 22.1346ZM132.802 30.3644C132.418 27.1882 131.881 23.8335 131.698 22.8825C128.327 23.0687 129.608 19.5155 131.164 20.9605C131.607 21.3714 131.817 21.93 131.955 22.5424C133.074 22.4409 134.17 22.1223 135.167 21.6068C135.113 20.8235 135.036 20.2295 135.254 19.7279C135.585 18.9708 136.544 18.7646 136.935 19.5032C137.081 19.7802 137.107 20.1341 137.001 20.428C136.775 21.0544 136.095 21.4683 135.501 21.7915C135.679 24.3167 135.924 26.862 136.233 29.3672L135.916 29.4072C135.611 26.942 135.368 24.4383 135.191 21.9531C134.2 22.4455 133.123 22.7548 132.02 22.8579C132.251 24.0751 132.76 27.3436 133.12 30.3259L132.802 30.3644Z" fill="#FAE0B2"/>
<path d="M131.181 29.318C131.189 29.3472 131.2 29.3765 131.207 29.4072L132.097 32.9974C132.343 33.9868 133.306 34.6224 134.313 34.4577L136.541 34.0899C137.547 33.9253 138.258 33.0143 138.172 31.9987C138.035 30.349 137.883 29.1672 137.863 28.2192L131.181 29.318Z" fill="#96D9C9"/>
<path d="M127.84 11.9874L126.081 8.77585C125.912 8.46654 126.026 8.07567 126.337 7.9064C126.648 7.73559 127.037 7.84946 127.208 8.16031L128.967 11.3704C129.136 11.6812 129.022 12.0721 128.711 12.2413C128.399 12.4121 128.009 12.2967 127.84 11.9874Z" fill="#FAE0B2"/>
<path d="M123.996 19.754L120.161 19.4185C119.809 19.3878 119.547 19.0769 119.58 18.723C119.61 18.3706 119.921 18.109 120.274 18.1398L124.108 18.4752C124.461 18.506 124.722 18.8168 124.692 19.1708C124.661 19.5232 124.35 19.7848 123.996 19.754Z" fill="#FAE0B2"/>
<path d="M120.195 31.5078C119.946 31.2554 119.948 30.8507 120.2 30.6014C121.143 29.6704 122.179 28.824 123.281 28.0884C123.575 27.8915 123.973 27.97 124.17 28.2654C124.367 28.5593 124.289 28.9579 123.993 29.1549C122.959 29.8458 121.987 30.6399 121.102 31.5139C120.851 31.7617 120.445 31.7617 120.195 31.5078Z" fill="#FAE0B2"/>
<path d="M137.313 11.8136C136.972 11.7228 136.769 11.3704 136.86 11.0288C137.293 9.40377 137.56 7.72642 137.651 6.04754C137.671 5.69361 137.972 5.42124 138.326 5.44124C138.68 5.45971 138.951 5.76132 138.932 6.11526C138.837 7.88493 138.557 9.64844 138.1 11.3596C138.008 11.7043 137.654 11.9044 137.313 11.8136Z" fill="#FAE0B2"/>
<path d="M141.262 16.7425C141.161 16.4024 141.351 16.0454 141.691 15.9423L145.677 14.742C146.017 14.6389 146.374 14.8312 146.477 15.1713C146.579 15.5099 146.386 15.8684 146.048 15.97L142.062 17.1718C141.724 17.2734 141.365 17.0826 141.262 16.7425Z" fill="#FAE0B2"/>
<path d="M147.81 27.3481C147.753 27.3481 147.695 27.3405 147.636 27.3251C146.254 26.9357 144.912 26.3971 143.644 25.7247C143.332 25.5585 143.213 25.1691 143.38 24.8567C143.546 24.5444 143.934 24.4259 144.246 24.5921C145.432 25.2215 146.69 25.7262 147.984 26.0894C148.324 26.1848 148.522 26.5387 148.427 26.8803C148.347 27.1635 148.09 27.3481 147.81 27.3481Z" fill="#FAE0B2"/>
<path d="M206.192 55.7092L204.181 50.9526L199.124 49.9139C198.549 49.7954 198.358 49.0675 198.803 48.6828L202.704 45.3004L202.128 40.1699C202.063 39.5851 202.696 39.1804 203.201 39.4836L207.622 42.1488L212.324 40.016C212.86 39.7744 213.442 40.2499 213.308 40.8239L212.14 45.8528L215.621 49.6661C216.018 50.1001 215.744 50.8002 215.157 50.851L210.013 51.2942L207.463 55.783C207.172 56.2939 206.421 56.2493 206.192 55.7092Z" fill="#F7CC7F"/>
<path d="M54.635 174.329L52.6237 169.572L47.5671 168.534C46.9915 168.415 46.8007 167.687 47.2454 167.303L51.1464 163.92L50.5709 158.79C50.5062 158.205 51.1387 157.8 51.6434 158.103L56.0646 160.769L60.7673 158.636C61.3028 158.394 61.8845 158.87 61.7506 159.444L60.5826 164.473L64.0635 168.286C64.4605 168.72 64.1866 169.42 63.6003 169.471L58.4559 169.914L55.906 174.403C55.6152 174.914 54.8643 174.869 54.635 174.329Z" fill="#F7CC7F"/>
<path d="M238.205 39.3928L237.379 42.7214L231.874 41.9827L230.066 46.7008L225.857 46.8224L225.919 48.9521L231.546 48.7906L233.262 44.3202L238.987 45.0881L240.23 40.0776L238.205 39.3928Z" fill="#F48C7F"/>
<path d="M71.3477 84L70.5213 87.3285L65.0169 86.5899L63.2087 91.308L59 91.4296L59.0616 93.5593L64.6891 93.3977L66.4049 88.9274L72.1294 89.6953L73.3728 84.6848L71.3477 84Z" fill="#F48C7F"/>
<path d="M189.173 198.974H92.433C88.7382 198.974 85.7437 195.867 85.7437 192.035V187.908C85.7437 184.077 88.7382 180.97 92.433 180.97H189.173C184.748 185.986 184.671 193.653 188.996 198.765L189.173 198.974Z" fill="#B75742"/>
<path d="M187.68 183.033H134.022C130.327 183.033 127.333 186.14 127.333 189.972C127.333 193.805 130.327 196.911 134.022 196.911H187.685C185.176 192.654 185.181 187.279 187.68 183.033Z" fill="#FAE0B2"/>
<path d="M155.187 168.465C155.327 168.202 155.113 167.896 154.789 167.896H103.6C99.587 167.896 96.3354 170.823 96.3354 174.434C96.3354 178.044 99.587 180.973 103.6 180.973H154.802C155.129 180.973 155.344 180.665 155.201 180.4C153.174 176.621 153.179 172.228 155.187 168.465Z" fill="#86B1F2"/>
<path d="M154.864 169.113H129.494C124.786 169.113 120.969 171.566 120.969 174.591C120.969 177.618 124.786 180.071 129.494 180.071H155.03C153.285 176.584 153.237 172.614 154.864 169.113Z" fill="#F7CC7F"/>
<path d="M148.312 171.71H145.008C144.298 171.71 143.721 171.949 143.721 172.243V172.291H148.312V171.71Z" fill="#B75742"/>
<path d="M151.131 173.046C151.131 172.308 150.267 171.711 149.202 171.711H144.963C145.771 171.711 146.425 172.164 146.425 172.723L146.405 187.048L148.747 185.206L151.135 187.048L151.131 173.046Z" fill="#F47458"/>
<path d="M145.776 167.425H115.991C113.35 167.425 111.21 164.883 111.21 161.748C111.21 158.613 113.35 156.073 115.991 156.073H145.776C143.5 159.22 143.41 163.835 145.563 167.102L145.776 167.425Z" fill="#FAE0B2"/>
<path d="M111.213 161.748C111.213 158.613 113.404 156.073 116.108 156.073H146.343C146.485 156.073 146.599 155.939 146.597 155.776C146.596 155.614 146.482 155.485 146.343 155.485H98.3774C95.3951 155.485 92.9761 158.289 92.9761 161.748C92.9761 165.209 95.3951 168.013 98.3774 168.013H146.343C146.482 168.013 146.596 167.882 146.597 167.722C146.599 167.557 146.483 167.425 146.343 167.425H116.108C113.404 167.425 111.213 164.883 111.213 161.748Z" fill="#466EB6"/>
<path d="M140.574 158.861H137.27C136.561 158.861 135.984 159.097 135.984 159.384V159.432H140.574V158.861Z" fill="#184655"/>
<path d="M143.394 160.172C143.394 159.449 142.53 158.861 141.465 158.861H137.226C138.034 158.861 138.688 159.307 138.688 159.855L138.668 173.903L141.01 172.097L143.398 173.903L143.394 160.172Z" fill="#3C8F7C"/>
<path d="M193.23 72.0902L197.627 70.933L194.648 110.681L189.373 110.857L192.033 73.5336C192.082 72.8458 192.564 72.2656 193.23 72.0902Z" fill="#184655"/>
<path d="M195.042 111.814C194.943 111.823 194.843 111.822 194.74 111.809C193.867 111.706 193.221 110.838 193.297 109.87L196.223 72.4948C196.299 71.5269 197.068 70.8252 197.942 70.9283C198.815 71.0314 199.461 71.8993 199.386 72.8688L196.459 110.244C196.391 111.098 195.783 111.746 195.042 111.814Z" fill="#F7CC7F"/>
<path d="M154.575 113.805C154.576 113.833 154.578 113.859 154.581 113.887C154.718 115.407 155.897 116.546 157.211 116.427L194.345 113.103C195.66 112.986 196.614 111.658 196.477 110.138C196.471 110.073 196.464 110.01 196.453 109.947L154.575 113.805Z" fill="#F7CC7F"/>
<path d="M180.432 153.951C178.001 155.299 170.568 152.935 170.568 152.721C170.462 154.752 162.246 174.634 162.246 174.634L162.252 180.751C162.252 180.751 179.181 181.558 178.938 180.062C178.695 178.566 177.784 179.539 174.407 176.713C174.107 176.462 169.366 175.362 170.648 172.555C173.233 166.903 178.721 157.479 180.432 153.951Z" fill="#F7A491"/>
<path d="M161.695 180.97L180.227 180.974C180.895 180.907 181.052 180.362 180.815 180.031C180.329 179.351 176.777 177.744 174.39 176.679C170.232 177.164 162.923 175.565 162.253 174.617C160.493 176.975 161.322 180.893 161.695 180.97Z" fill="#3C8F7C"/>
<path d="M157.631 139.676C157.38 138.924 173.586 132.047 174.31 132.833C175.594 134.223 165.542 160.312 165.542 160.312L177.091 163.841C177.091 163.841 189.096 133.699 188.594 128.186C188.094 122.674 182.08 116.409 169.049 120.418C156.018 124.428 157.631 139.676 157.631 139.676Z" fill="#355389"/>
<path d="M191.184 157.379C188.448 156.882 184.902 156.741 182.063 156.691C182.398 159.218 184.022 172.177 183.725 172.974C182.523 176.199 179.855 177.709 179.855 177.709C179.855 177.709 192.438 189.063 193.197 187.751C193.957 186.44 192.636 186.616 191.815 182.29C191.742 181.905 189.922 175.867 189.81 172.611C189.594 166.4 191.09 160.829 191.184 157.379Z" fill="#F7A491"/>
<path d="M187.146 114.984C185.39 114.048 180.834 114.014 175.823 114.339C166.053 114.973 156.409 116.895 147.116 119.974L140.897 122.033L140.917 115.658C140.917 115.658 121.134 112.348 120.445 117.251C119.409 124.634 120.695 139.625 127.286 142.971C147.761 153.364 176.453 126.414 176.557 129.94C176.696 134.675 180.687 152.296 181.709 160.011C184.547 160.06 189.423 160.058 191.539 159.572C191.95 144.459 192.143 117.651 187.146 114.984Z" fill="#466EB6"/>
<path d="M179.47 177.975L193.617 189.273C194.177 189.646 194.642 189.324 194.669 188.918C194.725 188.082 192.995 184.589 191.824 182.253C188.3 179.993 183.651 174.1 183.736 172.943C182.243 174.202 179.232 177.678 179.47 177.975Z" fill="#3C8F7C"/>
<path d="M147.453 53.3547C146.979 49.0106 146.477 44.651 142.878 41.4671C139.963 38.8911 136.259 38.4541 132.595 39.8329C122.216 43.7385 127.563 52.9562 114.329 62.2508C110.216 65.1392 105.684 67.1151 102.588 71.0038C98.2529 76.4482 99.8902 82.9944 103.839 87.3663C122.739 108.282 143.838 80.0352 145.354 73.2535C146.48 68.2092 147.759 56.1508 147.453 53.3547Z" fill="#13375B"/>
<path d="M143.615 77.7793C142.072 74.934 140.482 72.6749 140.482 72.6749C138.88 69.8281 134.744 68.3893 134.744 68.3893C134.744 68.3893 133.36 68.417 131.771 68.4954C131.672 68.7586 131.572 68.9463 131.47 69.0217C130.873 69.4695 127.451 68.8925 125.241 70.3928C117.832 76.7437 119.881 107.528 120.463 117.251L143.029 117.465C143.029 117.465 140.183 96.544 144.768 91.1688C147.961 87.4263 145.906 82.0019 143.615 77.7793Z" fill="#50BFA5"/>
<path d="M133.445 57.9744C133.445 57.9744 132.204 66.832 131.338 68.9848C130.472 71.1377 136.101 75.7404 140.785 77.1392C145.469 78.5364 139.354 72.3841 139.548 70.082C139.742 67.7814 140.594 56.8864 140.594 56.8864L133.445 57.9744Z" fill="#F7A491"/>
<path d="M140.357 60.0103C140.494 58.2083 140.594 56.8864 140.594 56.8864L133.445 57.9744C133.445 57.9744 133.265 59.0147 133.065 60.4858C135.964 62.1678 138.569 61.6369 140.357 60.0103Z" fill="#F47458"/>
<path d="M135.687 41.7949C135.687 41.7949 132.869 42.4304 131.129 45.0849C129.39 47.7395 128.196 55.5568 133.926 59.2054C139.655 62.854 144.112 57.6927 144.186 52.6591C144.26 47.624 143.181 40.907 135.687 41.7949Z" fill="#F7A491"/>
<path d="M145.499 51.0833C145.009 52.2975 144.04 53.0515 143.332 52.7668C142.624 52.4821 142.447 51.2664 142.936 50.0523C143.424 48.8366 144.394 48.0826 145.101 48.3688C145.809 48.6535 145.986 49.8692 145.499 51.0833Z" fill="#F7A491"/>
<path d="M136.532 41.6303C136.532 41.6303 132.94 49.6877 129.784 50.4064C126.628 51.1265 126.674 55.1814 126.674 55.1814C126.674 55.1814 126.743 45.8175 129.702 43.6708C132.66 41.5226 136.532 41.6303 136.532 41.6303Z" fill="#13375B"/>
<path d="M131.038 52.0821C131.453 53.3901 131.073 54.6781 130.189 54.9597C129.304 55.2398 128.25 54.4073 127.834 53.0992C127.419 51.7897 127.799 50.5017 128.684 50.22C129.568 49.94 130.623 50.7725 131.038 52.0821Z" fill="#F7A491"/>
<path d="M171.397 110.254C170.043 109.764 168.029 109.703 168.063 109.524C168.198 108.801 174.18 111.121 173.372 110.066C172.921 109.478 168.446 107.396 167.356 107.739C166.301 108.073 159.37 110.018 159.37 110.018L140.425 105.579C140.425 105.579 135.644 94.7128 135.176 85.3766C131.224 85.9121 128.533 86.8877 125.098 88.7943C126.754 97.7227 130.781 112.194 135.233 114.91C137.104 116.052 159.464 113.542 159.464 113.542C159.464 113.542 164.391 113.194 165.196 112.885C165.807 112.65 167.379 111.765 168.234 111.522C170.179 110.972 173.641 112.354 173.652 111.972C173.66 111.695 172.781 110.754 171.397 110.254Z" fill="#F7A491"/>
<path d="M135.293 75.4018C135.11 72.5303 134.022 69.7558 130.966 68.8632C129.071 68.3092 126.946 68.8386 125.432 70.0758C123.632 71.547 123.128 73.906 123.138 76.1389C123.156 81.2109 123.502 86.4676 124.429 91.4612C127.863 89.5546 131.874 88.4081 135.827 87.8726C135.825 87.8434 135.533 79.1981 135.293 75.4018Z" fill="#96D9C9"/>
<path d="M76.5966 80.8232L47.2262 75.3541C46.6368 75.2433 46.2475 74.677 46.3567 74.0861L50.0361 54.3289C50.1469 53.7395 50.7132 53.3502 51.3041 53.4594L80.673 58.9285C81.2639 59.0377 81.6533 59.6056 81.5425 60.1949L77.8631 79.9537C77.7538 80.5431 77.186 80.9324 76.5966 80.8232Z" fill="#F7CC7F"/>
<path d="M62.6164 58.2359L53.6757 56.5709C53.0863 56.4601 52.697 55.8938 52.8062 55.3029L53.3664 52.2975C53.4772 51.7066 54.0434 51.3172 54.6344 51.428L63.5735 53.0931C64.1644 53.2023 64.5522 53.7702 64.443 54.3595L63.8828 57.3665C63.7736 57.9558 63.2057 58.3452 62.6164 58.2359Z" fill="#F7CC7F"/>
<path d="M77.934 80.0676C77.7816 80.6077 77.2415 80.9432 76.689 80.8401L47.1278 75.3356C46.5784 75.2325 46.1952 74.7293 46.2445 74.1722L47.791 56.4617C47.8187 56.157 47.9726 55.8769 48.2158 55.6907C48.4604 55.506 48.7713 55.4322 49.0729 55.4876L81.9134 61.603C82.2135 61.6599 82.4766 61.8384 82.6367 62.0985C82.7983 62.3585 82.8429 62.6724 82.7598 62.9664L77.934 80.0676Z" fill="#FAE0B2"/>
<path d="M212.645 15.3529L207.616 16.7271L206.532 10.6317L208.177 10.3393L208.941 14.6311L212.204 13.7402L212.645 15.3529Z" fill="#50BFA5"/>
<path d="M34.8982 123.185C36.1585 123.082 38.0913 123.638 38.9592 124.226C39.0885 124.347 40.0856 124.744 41.1228 126.461L40.8889 126.623C39.7964 125.478 39.0608 125.221 38.1836 124.958C36.7402 124.587 35.2844 124.864 35.166 124.929L34.8982 123.185Z" fill="#355389"/>
<path d="M41.0058 126.542C41.0058 126.542 33.3315 127.822 34.0471 133.817C34.7627 139.813 42.8585 144.475 50.085 140.768C59.8043 135.781 55.9649 123.099 49.0462 122.119C42.1291 121.139 41.0058 126.542 41.0058 126.542Z" fill="#F47458"/>
<path d="M44.262 123.902C44.262 123.902 46.264 121.846 50.6497 123.716C55.037 125.586 55.354 134.307 51.4422 133.8C47.5289 133.294 41.1335 125.16 44.262 123.902Z" fill="#F48C7F"/>
<path d="M114.569 20.1294L83.0075 31.3876C81.9903 31.7508 80.8716 31.2199 80.5084 30.2027L74.6839 13.8725C74.3207 12.8553 74.8516 11.735 75.8688 11.3734L107.431 0.113665C108.448 -0.247963 109.566 0.281399 109.93 1.29858L115.754 17.6304C116.117 18.6475 115.588 19.7663 114.569 20.1294Z" fill="#86B1F2"/>
<path d="M93.6502 15.9315C94.8105 19.1847 93.1147 22.764 89.86 23.9243C86.6069 25.0846 83.0291 23.3888 81.8673 20.1341C80.707 16.881 82.4043 13.3032 85.6574 12.1414C88.9106 10.9811 92.4899 12.6784 93.6502 15.9315Z" fill="white"/>
<path d="M88.6551 15.0559C88.9983 16.0162 88.4966 17.0703 87.5379 17.4134C86.5777 17.7551 85.5236 17.2549 85.1804 16.2962C84.8388 15.336 85.3389 14.2803 86.2992 13.9387C87.2579 13.5971 88.3135 14.0972 88.6551 15.0559Z" fill="#86B1F2"/>
<path d="M91.6605 20.1987L86.1099 22.1792L85.8868 21.556C85.4821 20.4203 86.0745 19.1692 87.2117 18.7645L88.6459 18.2521C89.7831 17.8474 91.0327 18.4398 91.4389 19.577L91.6605 20.1987Z" fill="#86B1F2"/>
<path d="M94.4272 12.5168C94.0918 12.5168 93.7901 12.3045 93.6763 11.9875C93.5285 11.5735 93.7455 11.1165 94.1595 10.9688L107.957 6.04753C108.043 6.01675 108.134 5.99983 108.225 5.99983C108.562 5.99983 108.863 6.21373 108.975 6.53073C109.123 6.94468 108.908 7.40172 108.492 7.54945L94.6965 12.4707C94.6088 12.5015 94.5195 12.5168 94.4272 12.5168Z" fill="white"/>
<path d="M98.1529 15.9576C97.8158 15.9576 97.5142 15.7437 97.4004 15.4267C97.2526 15.0128 97.4696 14.5557 97.8851 14.408L108.66 10.564C108.746 10.5332 108.837 10.5178 108.928 10.5178C109.265 10.5178 109.566 10.7302 109.679 11.0472C109.751 11.2472 109.74 11.4642 109.65 11.6566C109.557 11.8489 109.397 11.9951 109.196 12.0659L98.4206 15.9099C98.3344 15.9407 98.2436 15.9576 98.1529 15.9576Z" fill="white"/>
<path d="M163.609 143.311H87.3994C85.0326 143.311 83.1152 145.23 83.1152 147.597V151.201C83.1152 153.568 85.0326 155.486 87.3994 155.486H163.609L163.569 155.445C160.31 152.052 160.327 146.684 163.609 143.311Z" fill="#F47458"/>
<path d="M162.261 145.113H121.52C119.154 145.113 117.235 147.032 117.235 149.399C117.235 151.766 119.154 153.684 121.52 153.684H162.26C160.762 151.03 160.764 147.765 162.261 145.113Z" fill="#FAE0B2"/>
<path d="M225.983 143.662L220.206 129.169C219.916 128.44 220.271 127.613 221.001 127.322L241.787 119.037C242.517 118.746 243.343 119.102 243.634 119.831L249.411 134.324C249.702 135.054 249.346 135.88 248.617 136.171L227.83 144.456C227.1 144.747 226.274 144.391 225.983 143.662Z" fill="#FAE0B2"/>
<path d="M245.593 135.281L240.401 122.258C240.318 122.049 240.419 121.812 240.629 121.729C240.838 121.646 241.075 121.747 241.159 121.956L246.35 134.98C246.433 135.189 246.332 135.426 246.122 135.509C245.913 135.592 245.676 135.491 245.593 135.281Z" fill="#466EB6"/>
<path d="M243.118 133.566L238.857 122.874C238.774 122.664 238.876 122.427 239.085 122.344C239.294 122.26 239.531 122.363 239.614 122.572L243.877 133.264C243.96 133.473 243.859 133.71 243.649 133.795C243.44 133.878 243.203 133.776 243.118 133.566Z" fill="#466EB6"/>
<path d="M242.504 136.512L237.312 123.489C237.229 123.28 237.331 123.043 237.54 122.96C237.749 122.875 237.988 122.978 238.071 123.188L243.261 136.211C243.344 136.42 243.243 136.657 243.034 136.74C242.824 136.823 242.587 136.722 242.504 136.512Z" fill="#466EB6"/>
<path d="M239.776 134.156L235.769 124.105C235.686 123.895 235.787 123.658 235.996 123.575C236.206 123.491 236.443 123.594 236.526 123.803L240.533 133.855C240.616 134.064 240.515 134.301 240.305 134.384C240.096 134.467 239.859 134.366 239.776 134.156Z" fill="#466EB6"/>
<path d="M245.453 120.869L245.348 120.607C245.309 120.51 245.205 120.461 245.114 120.498L243.141 121.284C243.05 121.319 243.007 121.429 243.046 121.524L243.15 121.787C243.189 121.883 243.294 121.932 243.384 121.896L245.357 121.11C245.448 121.073 245.491 120.965 245.453 120.869Z" fill="#355389"/>
<path d="M245.901 121.99L245.796 121.729C245.757 121.632 245.653 121.583 245.561 121.619L243.588 122.406C243.497 122.441 243.455 122.549 243.494 122.646L243.598 122.909C243.637 123.004 243.742 123.054 243.832 123.018L245.805 122.232C245.896 122.195 245.939 122.087 245.901 121.99Z" fill="#355389"/>
<path d="M246.347 123.112L246.242 122.85C246.204 122.754 246.099 122.704 246.008 122.741L244.036 123.528C243.945 123.563 243.902 123.671 243.94 123.768L244.045 124.031C244.083 124.126 244.188 124.175 244.279 124.14L246.253 123.352C246.342 123.317 246.385 123.209 246.347 123.112Z" fill="#355389"/>
<path d="M246.795 124.234L246.69 123.972C246.652 123.875 246.547 123.826 246.456 123.863L244.483 124.649C244.393 124.685 244.349 124.793 244.388 124.89L244.493 125.153C244.531 125.248 244.636 125.297 244.726 125.26L246.699 124.474C246.79 124.439 246.833 124.331 246.795 124.234Z" fill="#355389"/>
<path d="M247.241 125.356L247.136 125.094C247.098 124.997 246.993 124.948 246.902 124.985L244.929 125.771C244.839 125.807 244.797 125.914 244.834 126.011L244.939 126.273C244.977 126.37 245.083 126.419 245.174 126.382L247.147 125.596C247.238 125.56 247.279 125.453 247.241 125.356Z" fill="#355389"/>
<path d="M247.689 126.478L247.584 126.216C247.546 126.119 247.441 126.07 247.35 126.107L245.377 126.893C245.287 126.929 245.243 127.036 245.282 127.133L245.387 127.395C245.425 127.492 245.53 127.541 245.62 127.504L247.593 126.718C247.684 126.682 247.727 126.575 247.689 126.478Z" fill="#355389"/>
<path d="M248.135 127.599L248.03 127.338C247.992 127.241 247.887 127.192 247.796 127.229L245.824 128.015C245.733 128.05 245.691 128.158 245.73 128.255L245.834 128.517C245.873 128.614 245.977 128.663 246.068 128.626L248.041 127.84C248.132 127.804 248.173 127.696 248.135 127.599Z" fill="#355389"/>
<path d="M248.583 128.721L248.478 128.46C248.44 128.363 248.335 128.313 248.244 128.35L246.271 129.137C246.181 129.172 246.137 129.28 246.176 129.377L246.281 129.638C246.319 129.735 246.424 129.785 246.515 129.748L248.487 128.961C248.578 128.926 248.621 128.818 248.583 128.721Z" fill="#355389"/>
<path d="M249.029 129.843L248.924 129.582C248.886 129.485 248.781 129.435 248.69 129.472L246.718 130.259C246.627 130.294 246.585 130.402 246.624 130.499L246.728 130.76C246.767 130.857 246.871 130.906 246.962 130.87L248.935 130.083C249.026 130.048 249.067 129.94 249.029 129.843Z" fill="#355389"/>
<path d="M249.477 130.965L249.372 130.703C249.334 130.606 249.229 130.557 249.138 130.594L247.165 131.38C247.075 131.416 247.032 131.523 247.07 131.62L247.175 131.882C247.213 131.979 247.318 132.028 247.409 131.991L249.381 131.205C249.472 131.17 249.515 131.062 249.477 130.965Z" fill="#355389"/>
<path d="M249.923 132.087L249.819 131.824C249.782 131.728 249.677 131.679 249.585 131.716L247.612 132.502C247.521 132.538 247.48 132.645 247.518 132.742L247.623 133.004C247.661 133.101 247.766 133.15 247.857 133.113L249.829 132.327C249.92 132.291 249.962 132.184 249.923 132.087Z" fill="#355389"/>
<path d="M250.371 133.209L250.266 132.945C250.228 132.85 250.123 132.801 250.032 132.836L248.059 133.624C247.969 133.659 247.926 133.767 247.964 133.864L248.069 134.126C248.107 134.223 248.212 134.272 248.303 134.235L250.275 133.449C250.366 133.412 250.409 133.305 250.371 133.209Z" fill="#355389"/>
<path d="M255.821 132.054L247.572 143.802C247.553 143.828 247.538 143.857 247.529 143.888L246.687 146.469C246.59 146.769 246.936 147.018 247.189 146.827L249.397 145.162C249.424 145.142 249.448 145.118 249.468 145.09L257.739 133.312C257.845 133.161 257.803 132.953 257.648 132.855L256.26 131.967C256.114 131.874 255.921 131.913 255.821 132.054Z" fill="#B75742"/>
<path d="M249.458 145.102L249.438 145.131L247.307 146.738L246.727 146.349L247.524 143.902C248.147 144.244 248.895 144.594 249.458 145.102Z" fill="#F7CC7F"/>
<path d="M172.239 4.87343C173.427 5.82136 175.494 8.87135 178.128 11.0119C179.67 12.2645 180.858 11.946 182.826 12.1845C192.164 13.3125 189.634 15.2206 190.754 15.4084C190.436 16.1409 187.526 22.3255 186.983 23.575C186.481 24.7276 185.615 25.2431 184.359 25.0708C182.428 24.803 180.48 24.6045 178.578 24.1921C173.704 23.1349 170.993 20.6974 167.499 17.7382C166.573 16.9518 166.345 15.9731 166.825 14.8621C169.061 9.69616 171.997 5.34893 172.239 4.87343Z" fill="#466EB6"/>
<path d="M191.765 22.8486C191.724 24.883 191.879 25.2908 191.005 24.983C190.479 24.7968 189.969 24.5552 189.472 24.2982C189.123 24.1182 189.109 23.8797 189.394 23.5934C189.808 23.1764 190.234 22.7717 190.648 22.367C190.345 21.5683 190.693 20.6404 191.439 20.2034C191.591 20.1141 191.481 20.3034 192.781 17.3103C188.48 16.7794 185.445 16.424 180.199 15.7792C178.797 15.6068 177.549 15.0605 176.465 14.1526C172.716 11.018 168.969 7.88181 165.225 4.74411C164.717 4.31785 164.652 3.69307 165.056 3.21295C165.365 2.84671 165.773 2.82825 166.213 2.88365C167.41 3.03446 179.15 4.49174 180.342 4.63177C181.909 4.8149 183.288 5.40428 184.499 6.41838C188.18 9.50223 191.872 12.5738 195.557 15.6499C196.063 16.0731 196.2 16.4609 196.022 16.9302C195.826 17.4458 195.4 17.692 194.757 17.5535C194.291 17.4519 194.086 17.5935 193.926 18.0243C193.203 19.9695 192.698 20.4003 192.872 21.1113C193.007 21.6607 192.355 22.6101 191.765 22.8486Z" fill="#86B1F2"/>
<path d="M211.243 161.088L213.382 163.128C218.443 167.956 222.57 173.674 225.555 179.997L225.883 180.691C225.883 180.691 231.486 181.187 232.268 176.121C227.353 170.572 223.307 164.646 219.968 158.055L218.955 155.686L211.243 161.088Z" fill="#466EB6"/>
<path d="M218.949 155.68C219.225 156.074 217.723 157.598 215.593 159.081C213.465 160.566 211.506 161.468 211.232 161.074C210.956 160.68 212.469 159.138 214.597 157.655C216.726 156.17 218.675 155.285 218.949 155.68Z" fill="#86B1F2"/>
<path d="M218.958 155.694L218.952 155.686C218.952 155.686 214.687 159.297 212.929 159.664L213.472 160.403C214.114 160.057 214.844 159.606 215.593 159.081C217.698 157.615 219.189 156.11 218.958 155.694Z" fill="#355389"/>
<path d="M224.657 166.175C224.665 166.797 224.426 169.484 219.957 170.604C220.251 171.004 220.541 171.409 220.824 171.817C223.652 170.98 224.925 169.528 225.497 168.422C225.586 168.248 225.696 168.013 225.768 167.831C225.391 167.283 225.02 166.732 224.657 166.175Z" fill="#B75742"/>
<path d="M220.359 169.81L213.782 169.574L215.341 170.898L214.41 172.588L220.634 171.001L220.359 169.81Z" fill="#B75742"/>
<path d="M220.958 171.34L218.622 175.41L220.265 174.785L220.898 176.078L221.996 171.797L220.958 171.34Z" fill="#B75742"/>
<path d="M221.85 172.443C220.696 172.525 219.691 171.626 219.606 170.436C219.522 169.247 220.39 168.216 221.545 168.134C222.699 168.053 223.704 168.951 223.789 170.141C223.873 171.33 223.006 172.361 221.85 172.443Z" fill="#F47458"/>
<path d="M235.81 80.086L221.961 67.7275C221.061 66.9243 221.434 65.2715 222.676 64.5683L233.73 58.3098C234.438 57.9097 235.235 57.9466 235.747 58.4052L249.597 70.7637C250.497 71.567 250.123 73.2181 248.881 73.9214L237.828 80.1799C237.12 80.5815 236.323 80.5446 235.81 80.086Z" fill="#9BC1F9"/>
<path d="M235.81 80.086L221.961 67.7275C221.061 66.9243 221.434 65.2715 222.676 64.5683L233.73 58.3098C234.438 57.9097 235.235 57.9466 235.747 58.4052L249.597 70.7637C250.497 71.567 250.123 73.2181 248.881 73.9214L237.828 80.1799C237.12 80.5815 236.323 80.5446 235.81 80.086Z" fill="#9BC1F9"/>
<path d="M235.153 70.2543L233.999 60.7597C233.954 60.3965 234.219 60.0072 234.59 59.8917C234.961 59.7763 235.298 59.9779 235.342 60.3411L236.404 69.0787L246.907 71.6178C247.249 71.7008 247.407 72.0702 247.259 72.4426C247.112 72.815 246.713 73.0504 246.37 72.9673L235.153 70.2543Z" fill="white"/>
<path d="M54.2988 26.7619L55.73 29.5949L58.9646 29.4903L60.345 32.7773L63.755 31.6047L65.4801 35.2533L68.7532 34.5593L70.9861 37.8001L69.7596 38.6449L68.09 36.2228L64.6353 36.9552L62.9779 33.4467L59.5109 34.6393L57.9874 31.0122L54.8297 31.1138L53.5017 28.4885L51.4427 28.9902L51.0903 27.5421L54.2988 26.7619Z" fill="#F7CC7F"/>
<path d="M60.2085 121L61.6396 123.833L64.8743 123.728L66.2546 127.015L69.6647 125.843L71.3897 129.491L74.6629 128.797L76.8958 132.038L75.6693 132.883L73.9996 130.461L70.5449 131.193L68.8876 127.685L65.4206 128.877L63.8971 125.25L60.7394 125.352L59.4114 122.727L57.3524 123.228L57 121.78L60.2085 121Z" fill="#F7CC7F"/>
<path d="M227.504 99.2076L230.443 100.402L232.813 98.1982L236.013 99.7709L237.814 96.6455L241.512 98.2643L243.524 95.5914L247.336 96.567L246.967 98.0089L244.117 97.281L241.993 100.102L238.439 98.5459L236.607 101.724L233.076 99.9878L230.761 102.139L228.038 101.033L226.813 102.764L225.597 101.904L227.504 99.2076Z" fill="#50BFA5"/>
<path d="M29.6835 99.0967L30.5617 96.0482L28.1209 93.9234L29.348 90.5749L26.0505 89.1134L27.2712 85.2657L24.4013 83.5454L24.9703 79.6521L26.4431 79.8676L26.0192 82.7784L29.0477 84.5933L27.8747 88.2921L31.2275 89.7787L29.8729 93.4734L32.2559 95.5486L31.4422 98.3737L33.2927 99.4096L32.5652 100.709L29.6835 99.0967Z" fill="#50BFA5"/>
</svg>
