<svg width="2383" height="1746" viewBox="0 0 2383 1746" fill="none" xmlns="http://www.w3.org/2000/svg">
<path d="M905.165 331.319L886.472 337.052L873.925 307.999L845.565 313.025L832.619 292.812L822.379 299.372L839.699 326.399L866.579 321.639L879.632 351.865L907.765 343.225L905.165 331.319" fill="#50BFA5"/>
<path d="M2103.71 1376.26L2085.02 1382L2072.47 1352.94L2044.11 1357.97L2031.17 1337.76L2020.94 1344.32L2038.25 1371.33L2065.13 1366.58L2078.18 1396.81L2106.31 1388.17L2103.71 1376.26" fill="#50BFA5"/>
<path d="M790.005 1720.23C790.005 1720.23 690.272 1382.2 682.272 1307.64C674.272 1233.07 730.045 1256.17 730.045 1256.17C730.045 1256.17 683.125 1114.09 717.045 1080.37C750.979 1046.65 781.579 1109.51 781.579 1109.51C781.579 1109.51 791.845 937.026 828.019 936.972C895.379 936.852 894.059 1125.07 894.059 1125.07C894.059 1125.07 911.245 1051.39 947.325 1071.59C1001.73 1102.05 923.712 1249.73 923.712 1249.73C923.712 1249.73 993.032 1249.77 1017.38 1284.73C1061.07 1347.44 790.005 1720.23 790.005 1720.23Z" fill="#50BFA5"/>
<path d="M822.605 1675.49C822.605 1675.49 535.099 1627.41 472.565 1576.47C410.032 1525.52 471.925 1502.56 471.925 1502.56C471.925 1502.56 327.499 1428.52 329.165 1378.17C330.845 1327.83 402.592 1353.43 402.592 1353.43C402.592 1353.43 280.899 1214.65 309.712 1188.29C363.365 1139.21 504.059 1283.47 504.059 1283.47C504.059 1283.47 462.285 1214.87 506.272 1204C572.632 1187.64 621.592 1356.79 621.592 1356.79C621.592 1356.79 609.152 1289.99 654.899 1298.89C736.992 1314.85 822.605 1675.49 822.605 1675.49" fill="#50BFA5"/>
<path d="M654.899 1298.89C609.045 1290.6 621.592 1356.79 621.592 1356.79C621.592 1356.79 572.632 1187.64 506.272 1204C462.285 1214.87 504.059 1283.47 504.059 1283.47C504.059 1283.47 363.365 1139.21 309.712 1188.29L821.645 1675.57C812.525 1629.03 731.792 1312.79 654.899 1298.89" fill="#3C8F7C"/>
<path d="M904.405 1715.15C904.405 1715.15 752.992 1561.17 676.752 1545.13C600.499 1529.11 614.219 1583.35 614.219 1583.35C614.219 1583.35 462.939 1451.05 427.872 1483.11C392.819 1515.16 430.739 1546.11 430.739 1546.11C430.739 1546.11 304.725 1523.79 286.699 1565.13C258.979 1628.67 466.219 1663.25 466.219 1663.25C466.219 1663.25 379.365 1669.28 399.512 1709.12C429.885 1769.2 904.405 1715.15 904.405 1715.15Z" fill="#355389"/>
<path d="M286.699 1565.13C304.725 1523.79 430.739 1546.11 430.739 1546.11C430.739 1546.11 392.819 1515.16 427.872 1483.11C462.939 1451.05 609.512 1565.36 609.512 1565.36C609.512 1565.36 574.952 1499.29 651.192 1515.33C727.445 1531.37 904.405 1715.15 904.405 1715.15L286.699 1565.13Z" fill="#466EB6"/>
<path d="M1145.46 127.105C1094.49 135.479 1079.35 202.372 1121.73 232.292C1129.34 237.665 1134.61 245.745 1136.85 254.799L1144.55 285.905C1146.69 294.479 1155.03 299.985 1163.75 298.559L1183.06 295.372C1191.78 293.945 1197.94 286.052 1197.19 277.252C1194.51 245.119 1191.21 233.465 1201.65 219.145C1232.19 177.239 1196.43 118.705 1145.46 127.105Z" fill="#F7CC7F"/>
<path d="M1174.46 172.052C1172.87 175.705 1173.47 180.372 1173.85 185.745C1178.02 183.372 1182.86 180.398 1184.43 176.052C1185.54 172.998 1184.3 168.692 1181.19 167.892C1180.85 167.812 1175.58 169.492 1174.46 172.052V172.052ZM1127.22 191.785C1129.82 194.572 1134.17 195.812 1140.51 195.518C1139.42 190.838 1137.79 186.638 1134.58 183.652C1127.33 176.905 1122.87 187.092 1127.22 191.785ZM1150.66 263.092C1147.34 235.572 1142.69 206.505 1141.1 198.265C1111.89 199.878 1122.99 169.092 1136.47 181.612C1140.31 185.172 1142.13 190.012 1143.33 195.318C1153.02 194.438 1162.51 191.679 1171.15 187.212C1170.69 180.425 1170.02 175.278 1171.91 170.932C1174.78 164.372 1183.09 162.585 1186.47 168.985C1187.74 171.385 1187.97 174.452 1187.05 176.998C1185.09 182.425 1179.19 186.012 1174.05 188.812C1175.59 210.692 1177.71 232.745 1180.39 254.452L1177.65 254.798C1175.01 233.438 1172.9 211.745 1171.37 190.212C1162.78 194.479 1153.45 197.158 1143.89 198.052C1145.89 208.598 1150.3 236.918 1153.42 262.758L1150.66 263.092" fill="#FAE0B2"/>
<path d="M1136.62 254.025C1136.69 254.279 1136.78 254.532 1136.85 254.799L1144.55 285.905C1146.69 294.479 1155.03 299.985 1163.75 298.559L1183.06 295.372C1191.78 293.945 1197.94 286.052 1197.19 277.252C1196.01 262.959 1194.69 252.719 1194.51 244.505L1136.62 254.025" fill="#96D9C9"/>
<path d="M1107.67 103.865L1092.43 76.0384C1090.97 73.3584 1091.95 69.9718 1094.65 68.5051C1097.34 67.0251 1100.71 68.0118 1102.19 70.7051L1117.43 98.5185C1118.9 101.212 1117.91 104.598 1115.22 106.065C1112.51 107.545 1109.14 106.545 1107.67 103.865Z" fill="#FAE0B2"/>
<path d="M1074.37 171.158L1041.14 168.252C1038.09 167.985 1035.82 165.292 1036.1 162.225C1036.37 159.172 1039.06 156.905 1042.11 157.172L1075.34 160.078C1078.39 160.345 1080.66 163.038 1080.39 166.105C1080.13 169.158 1077.43 171.425 1074.37 171.158Z" fill="#FAE0B2"/>
<path d="M1041.43 272.999C1039.27 270.812 1039.29 267.305 1041.47 265.145C1049.65 257.079 1058.62 249.745 1068.17 243.372C1070.71 241.665 1074.17 242.345 1075.87 244.905C1077.58 247.452 1076.9 250.905 1074.34 252.612C1065.38 258.599 1056.95 265.479 1049.29 273.052C1047.11 275.199 1043.59 275.199 1041.43 272.999" fill="#FAE0B2"/>
<path d="M1189.75 102.359C1186.79 101.572 1185.03 98.5185 1185.82 95.5585C1189.58 81.4785 1191.89 66.9452 1192.67 52.3985C1192.85 49.3319 1195.46 46.9719 1198.53 47.1453C1201.59 47.3053 1203.94 49.9186 1203.78 52.9852C1202.95 68.3186 1200.53 83.5985 1196.57 98.4252C1195.77 101.412 1192.7 103.145 1189.75 102.359" fill="#FAE0B2"/>
<path d="M1223.97 145.065C1223.09 142.119 1224.74 139.025 1227.69 138.132L1262.22 127.732C1265.17 126.839 1268.26 128.505 1269.15 131.452C1270.03 134.385 1268.37 137.492 1265.43 138.372L1230.9 148.785C1227.97 149.665 1224.86 148.012 1223.97 145.065Z" fill="#FAE0B2"/>
<path d="M1280.7 236.958C1280.21 236.958 1279.7 236.892 1279.19 236.758C1267.22 233.385 1255.59 228.718 1244.61 222.892C1241.9 221.452 1240.87 218.078 1242.31 215.372C1243.75 212.665 1247.11 211.639 1249.82 213.079C1260.1 218.532 1270.99 222.905 1282.21 226.052C1285.15 226.879 1286.87 229.945 1286.05 232.905C1285.35 235.358 1283.13 236.958 1280.7 236.958" fill="#FAE0B2"/>
<path d="M1786.55 482.692L1769.13 441.478L1725.31 432.478C1720.33 431.452 1718.67 425.145 1722.53 421.812L1756.33 392.505L1751.34 348.052C1750.78 342.985 1756.26 339.478 1760.63 342.105L1798.94 365.198L1839.69 346.718C1844.33 344.625 1849.37 348.745 1848.21 353.718L1838.09 397.292L1868.25 430.332C1871.69 434.092 1869.31 440.158 1864.23 440.598L1819.66 444.438L1797.57 483.332C1795.05 487.758 1788.54 487.372 1786.55 482.692Z" fill="#F7CC7F"/>
<path d="M2063.93 341.319L2056.77 370.159L2009.07 363.759L1993.41 404.639L1956.94 405.692L1957.47 424.146L2006.23 422.746L2021.1 384.012L2070.7 390.665L2081.47 347.252L2063.93 341.319" fill="#F48C7F"/>
<path d="M1639.09 1724.01H800.885C768.872 1724.01 742.925 1697.09 742.925 1663.89V1628.13C742.925 1594.93 768.872 1568.01 800.885 1568.01H1639.09C1600.75 1611.48 1600.09 1677.91 1637.55 1722.2L1639.09 1724.01Z" fill="#B75742"/>
<path d="M1626.15 1585.89H1161.23C1129.22 1585.89 1103.27 1612.81 1103.27 1646.01C1103.27 1679.23 1129.22 1706.13 1161.23 1706.13H1626.19C1604.46 1669.25 1604.5 1622.68 1626.15 1585.89Z" fill="#FAE0B2"/>
<path d="M1344.62 1459.66C1345.83 1457.38 1343.98 1454.73 1341.17 1454.73H897.645C862.872 1454.73 834.699 1480.09 834.699 1511.38C834.699 1542.66 862.872 1568.04 897.645 1568.04H1341.29C1344.11 1568.04 1345.98 1565.37 1344.74 1563.08C1327.18 1530.33 1327.22 1492.26 1344.62 1459.66Z" fill="#86B1F2"/>
<path d="M1341.82 1465.28H1122.01C1081.21 1465.28 1048.14 1486.53 1048.14 1512.75C1048.14 1538.97 1081.21 1560.23 1122.01 1560.23H1343.26C1328.14 1530.01 1327.73 1495.61 1341.82 1465.28" fill="#F7CC7F"/>
<path d="M1285.05 1487.78H1256.42C1250.27 1487.78 1245.27 1489.85 1245.27 1492.4V1492.81H1285.05V1487.78" fill="#B75742"/>
<path d="M1309.47 1499.36C1309.47 1492.96 1301.99 1487.79 1292.77 1487.79H1256.03C1263.03 1487.79 1268.7 1491.72 1268.7 1496.56L1268.53 1620.68L1288.82 1604.72L1309.51 1620.68L1309.47 1499.36" fill="#F47458"/>
<path d="M1263.07 1450.65H1005.01C982.125 1450.65 963.579 1428.63 963.579 1401.47C963.579 1374.31 982.125 1352.29 1005.01 1352.29H1263.07C1243.35 1379.56 1242.58 1419.55 1261.23 1447.85L1263.07 1450.65Z" fill="#FAE0B2"/>
<path d="M963.605 1401.47C963.605 1374.31 982.592 1352.29 1006.02 1352.29H1267.99C1269.22 1352.29 1270.21 1351.13 1270.19 1349.72C1270.18 1348.32 1269.19 1347.2 1267.99 1347.2H852.392C826.552 1347.2 805.592 1371.49 805.592 1401.47C805.592 1431.45 826.552 1455.75 852.392 1455.75H1267.99C1269.19 1455.75 1270.18 1454.61 1270.19 1453.23C1270.21 1451.8 1269.21 1450.65 1267.99 1450.65H1006.02C982.592 1450.65 963.605 1428.63 963.605 1401.47" fill="#466EB6"/>
<path d="M1218.01 1376.45H1189.38C1183.23 1376.45 1178.23 1378.49 1178.23 1380.99V1381.4H1218.01V1376.45Z" fill="#184655"/>
<path d="M1242.43 1387.81C1242.43 1381.55 1234.95 1376.45 1225.73 1376.45H1188.99C1195.99 1376.45 1201.66 1380.32 1201.66 1385.07L1201.49 1506.79L1221.78 1491.13L1242.47 1506.79L1242.43 1387.81" fill="#3C8F7C"/>
<path d="M1674.25 624.625L1712.34 614.599L1686.53 958.999L1640.82 960.519L1663.87 637.132C1664.3 631.172 1668.47 626.145 1674.25 624.625" fill="#184655"/>
<path d="M1689.94 968.812C1689.09 968.892 1688.22 968.878 1687.33 968.772C1679.77 967.878 1674.17 960.358 1674.82 951.972L1700.18 628.132C1700.83 619.745 1707.5 613.665 1715.07 614.559C1722.63 615.452 1728.23 622.972 1727.58 631.372L1702.22 955.212C1701.63 962.612 1696.37 968.225 1689.94 968.812" fill="#F7CC7F"/>
<path d="M1339.31 986.065C1339.33 986.305 1339.34 986.532 1339.37 986.772C1340.55 999.945 1350.77 1009.81 1362.15 1008.79L1683.9 979.985C1695.3 978.972 1703.57 967.465 1702.38 954.292C1702.33 953.732 1702.26 953.185 1702.17 952.638L1339.31 986.065Z" fill="#F7CC7F"/>
<path d="M1563.35 1333.91C1542.29 1345.59 1477.89 1325.11 1477.89 1323.25C1476.97 1340.85 1405.78 1513.12 1405.78 1513.12L1405.83 1566.12C1405.83 1566.12 1552.51 1573.11 1550.41 1560.15C1548.3 1547.19 1540.41 1555.61 1511.15 1531.13C1508.55 1528.96 1467.47 1519.43 1478.58 1495.11C1500.98 1446.13 1548.53 1364.48 1563.35 1333.91Z" fill="#F7A491"/>
<path d="M1401.01 1568.01L1561.58 1568.05C1567.37 1567.47 1568.73 1562.75 1566.67 1559.88C1562.46 1553.99 1531.69 1540.07 1511.01 1530.84C1474.98 1535.04 1411.65 1521.19 1405.85 1512.97C1390.59 1533.4 1397.78 1567.35 1401.01 1568.01" fill="#3C8F7C"/>
<path d="M1365.79 1210.23C1363.62 1203.71 1504.03 1144.12 1510.31 1150.93C1521.43 1162.97 1434.34 1389.03 1434.34 1389.03L1534.41 1419.6C1534.41 1419.6 1638.42 1158.44 1634.07 1110.67C1629.74 1062.91 1577.63 1008.63 1464.73 1043.36C1351.82 1078.11 1365.79 1210.23 1365.79 1210.23" fill="#355389"/>
<path d="M1656.51 1363.61C1632.81 1359.31 1602.09 1358.08 1577.49 1357.65C1580.39 1379.55 1594.46 1491.83 1591.89 1498.73C1581.47 1526.68 1558.35 1539.76 1558.35 1539.76C1558.35 1539.76 1667.38 1638.13 1673.95 1626.77C1680.54 1615.41 1669.1 1616.93 1661.98 1579.45C1661.35 1576.12 1645.58 1523.8 1644.61 1495.59C1642.74 1441.77 1655.7 1393.51 1656.51 1363.61" fill="#F7A491"/>
<path d="M1621.53 996.278C1606.31 988.172 1566.83 987.878 1523.42 990.692C1438.77 996.185 1355.21 1012.84 1274.69 1039.52L1220.81 1057.36L1220.98 1002.12C1220.98 1002.12 1049.57 973.438 1043.59 1015.92C1034.62 1079.89 1045.77 1209.79 1102.87 1238.77C1280.27 1328.83 1528.87 1095.32 1529.78 1125.86C1530.98 1166.89 1565.57 1319.57 1574.42 1386.41C1599.01 1386.84 1641.26 1386.82 1659.59 1382.61C1663.15 1251.66 1664.82 1019.39 1621.53 996.278" fill="#466EB6"/>
<path d="M1555.02 1542.07L1677.59 1639.96C1682.45 1643.19 1686.47 1640.4 1686.71 1636.88C1687.19 1629.64 1672.21 1599.37 1662.06 1579.13C1631.53 1559.55 1591.25 1508.49 1591.98 1498.46C1579.05 1509.37 1552.95 1539.49 1555.02 1542.07Z" fill="#3C8F7C"/>
<path d="M1277.61 462.292C1273.5 424.652 1269.15 386.879 1237.97 359.292C1212.71 336.972 1180.62 333.185 1148.87 345.132C1058.94 378.972 1105.27 458.839 990.605 539.372C954.965 564.399 915.699 581.519 888.872 615.212C851.312 662.385 865.499 719.105 899.712 756.985C1063.47 938.212 1246.29 693.465 1259.42 634.705C1269.18 590.999 1280.26 486.519 1277.61 462.292" fill="#13375B"/>
<path d="M1244.35 673.918C1230.98 649.265 1217.21 629.691 1217.21 629.691C1203.33 605.025 1167.49 592.558 1167.49 592.558C1167.49 592.558 1155.5 592.798 1141.73 593.478C1140.87 595.758 1140.01 597.385 1139.13 598.038C1133.95 601.918 1104.3 596.918 1085.15 609.918C1020.95 664.945 1038.71 931.678 1043.75 1015.92L1239.27 1017.77C1239.27 1017.77 1214.62 836.505 1254.34 789.931C1282.01 757.505 1264.21 710.505 1244.35 673.918Z" fill="#50BFA5"/>
<path d="M1156.23 502.319C1156.23 502.319 1145.49 579.066 1137.98 597.719C1130.47 616.372 1179.25 656.252 1219.83 668.372C1260.42 680.479 1207.43 627.172 1209.11 607.226C1210.79 587.292 1218.18 492.892 1218.18 492.892L1156.23 502.319Z" fill="#F7A491"/>
<path d="M1216.13 519.959C1217.31 504.346 1218.18 492.892 1218.18 492.892L1156.23 502.319C1156.23 502.319 1154.67 511.332 1152.94 524.079C1178.06 538.652 1200.63 534.052 1216.13 519.959" fill="#F47458"/>
<path d="M1175.66 362.132C1175.66 362.132 1151.25 367.638 1136.17 390.638C1121.1 413.638 1110.75 481.372 1160.41 512.985C1210.05 544.598 1248.66 499.878 1249.3 456.265C1249.94 412.638 1240.59 354.438 1175.66 362.132Z" fill="#F7A491"/>
<path d="M1260.67 442.611C1256.43 453.131 1248.03 459.665 1241.9 457.198C1235.77 454.731 1234.23 444.198 1238.47 433.678C1242.7 423.145 1251.1 416.611 1257.23 419.091C1263.37 421.558 1264.9 432.091 1260.67 442.611Z" fill="#F7A491"/>
<path d="M1182.98 360.706C1182.98 360.706 1151.86 430.519 1124.51 436.746C1097.17 442.986 1097.57 478.119 1097.57 478.119C1097.57 478.119 1098.17 396.986 1123.81 378.386C1149.43 359.772 1182.98 360.706 1182.98 360.706" fill="#13375B"/>
<path d="M1135.38 451.265C1138.98 462.598 1135.69 473.758 1128.02 476.198C1120.35 478.625 1111.22 471.412 1107.62 460.078C1104.02 448.732 1107.31 437.572 1114.98 435.132C1122.65 432.705 1131.78 439.918 1135.38 451.265Z" fill="#F7A491"/>
<path d="M1485.07 955.292C1473.34 951.052 1455.89 950.519 1456.18 948.972C1457.35 942.705 1509.18 962.812 1502.18 953.665C1498.27 948.572 1459.5 930.532 1450.06 933.505C1440.91 936.399 1380.86 953.252 1380.86 953.252L1216.71 914.785C1216.71 914.785 1175.29 820.639 1171.23 739.745C1136.99 744.385 1113.67 752.839 1083.91 769.359C1098.26 846.719 1133.15 972.105 1171.73 995.639C1187.94 1005.53 1381.67 983.785 1381.67 983.785C1381.67 983.785 1424.37 980.772 1431.34 978.092C1436.63 976.052 1450.26 968.385 1457.66 966.279C1474.51 961.519 1504.51 973.492 1504.61 970.185C1504.67 967.785 1497.06 959.625 1485.07 955.292" fill="#F7A491"/>
<path d="M1172.25 653.318C1170.66 628.438 1161.23 604.398 1134.75 596.665C1118.34 591.865 1099.93 596.451 1086.81 607.171C1071.21 619.918 1066.85 640.358 1066.93 659.705C1067.09 703.651 1070.09 749.198 1078.11 792.465C1107.87 775.945 1142.62 766.011 1176.87 761.371C1176.86 761.118 1174.33 686.212 1172.25 653.318" fill="#96D9C9"/>
<path d="M663.672 700.292L409.192 652.905C404.085 651.945 400.712 647.039 401.659 641.919L433.539 470.732C434.499 465.625 439.405 462.252 444.525 463.199L698.992 510.585C704.112 511.532 707.485 516.452 706.525 521.559L674.645 692.759C673.699 697.865 668.779 701.239 663.672 700.292Z" fill="#F7CC7F"/>
<path d="M542.539 504.585L465.072 490.158C459.965 489.198 456.592 484.292 457.539 479.172L462.392 453.132C463.352 448.012 468.259 444.638 473.379 445.598L550.832 460.025C555.952 460.972 559.312 465.892 558.366 470.998L553.512 497.052C552.565 502.158 547.645 505.532 542.539 504.585Z" fill="#F7CC7F"/>
<path d="M675.259 693.745C673.939 698.425 669.259 701.332 664.472 700.439L408.339 652.745C403.579 651.852 400.259 647.492 400.685 642.665L414.085 489.212C414.325 486.572 415.659 484.145 417.766 482.532C419.886 480.932 422.579 480.292 425.192 480.772L709.739 533.759C712.339 534.252 714.619 535.799 716.006 538.052C717.406 540.305 717.792 543.025 717.072 545.572L675.259 693.745Z" fill="#FAE0B2"/>
<path d="M1842.46 133.025L1798.89 144.932L1789.5 92.1184L1803.75 89.585L1810.37 126.772L1838.65 119.052L1842.46 133.025" fill="#50BFA5"/>
<path d="M454.152 858.265C465.072 857.372 481.819 862.185 489.339 867.278C490.459 868.332 499.099 871.772 508.085 886.652L506.059 888.052C496.592 878.132 490.219 875.905 482.619 873.625C470.112 870.412 457.499 872.812 456.472 873.372L454.152 858.265Z" fill="#355389"/>
<path d="M507.072 887.345C507.072 887.345 440.579 898.439 446.779 950.385C452.979 1002.33 523.125 1042.73 585.739 1010.61C669.952 967.399 636.685 857.519 576.739 849.025C516.805 840.532 507.072 887.345 507.072 887.345" fill="#F47458"/>
<path d="M535.285 864.478C535.285 864.478 552.632 846.665 590.632 862.865C628.645 879.065 631.392 954.625 597.499 950.238C563.592 945.852 508.179 875.372 535.285 864.478" fill="#F48C7F"/>
<path d="M992.685 174.412L719.219 271.959C710.405 275.105 700.712 270.505 697.565 261.692L647.099 120.199C643.952 111.385 648.552 101.679 657.365 98.5455L930.832 0.985433C939.645 -2.1479 949.339 2.43877 952.485 11.2521L1002.95 152.759C1006.1 161.572 1001.51 171.265 992.685 174.412" fill="#86B1F2"/>
<path d="M811.432 138.039C821.485 166.225 806.792 197.239 778.592 207.292C750.405 217.345 719.405 202.652 709.339 174.452C699.285 146.265 713.992 115.265 742.179 105.199C770.365 95.1453 801.379 109.852 811.432 138.039Z" fill="white"/>
<path d="M768.152 130.452C771.125 138.772 766.779 147.905 758.472 150.879C750.152 153.839 741.019 149.505 738.045 141.199C735.085 132.879 739.419 123.732 747.739 120.772C756.045 117.812 765.192 122.145 768.152 130.452Z" fill="#86B1F2"/>
<path d="M794.192 175.012L746.099 192.172L744.165 186.772C740.659 176.932 745.792 166.092 755.645 162.585L768.072 158.145C777.925 154.639 788.752 159.772 792.272 169.625L794.192 175.012" fill="#86B1F2"/>
<path d="M818.165 108.452C815.259 108.452 812.646 106.612 811.659 103.865C810.379 100.279 812.259 96.3187 815.845 95.0387L935.392 52.3988C936.139 52.1321 936.925 51.9855 937.712 51.9855C940.632 51.9855 943.245 53.8388 944.219 56.5855C945.499 60.1722 943.632 64.1322 940.032 65.4122L820.499 108.052C819.739 108.319 818.965 108.452 818.165 108.452Z" fill="white"/>
<path d="M850.445 138.265C847.525 138.265 844.912 136.412 843.925 133.665C842.645 130.078 844.525 126.118 848.125 124.838L941.485 91.5318C942.232 91.2651 943.019 91.1318 943.805 91.1318C946.725 91.1318 949.339 92.9719 950.312 95.7185C950.939 97.4519 950.845 99.3318 950.059 100.998C949.259 102.665 947.872 103.932 946.125 104.545L852.765 137.852C852.019 138.119 851.232 138.265 850.445 138.265Z" fill="white"/>
<path d="M1417.59 1241.72H757.272C736.765 1241.72 720.152 1258.35 720.152 1278.85V1310.08C720.152 1330.59 736.765 1347.21 757.272 1347.21H1417.59L1417.25 1346.85C1389.01 1317.45 1389.15 1270.95 1417.59 1241.72Z" fill="#F47458"/>
<path d="M1405.91 1257.33H1052.91C1032.41 1257.33 1015.78 1273.96 1015.78 1294.47C1015.78 1314.97 1032.41 1331.6 1052.91 1331.6H1405.9C1392.93 1308.6 1392.94 1280.31 1405.91 1257.33Z" fill="#FAE0B2"/>
<path d="M1958.03 1244.76L1907.98 1119.18C1905.46 1112.86 1908.54 1105.7 1914.86 1103.18L2094.97 1031.4C2101.29 1028.88 2108.45 1031.96 2110.97 1038.28L2161.02 1163.85C2163.54 1170.17 2160.46 1177.33 2154.14 1179.85L1974.03 1251.64C1967.71 1254.16 1960.55 1251.08 1958.03 1244.76Z" fill="#FAE0B2"/>
<path d="M2127.94 1172.15L2082.95 1059.31C2082.23 1057.49 2083.11 1055.44 2084.93 1054.72C2086.74 1054 2088.79 1054.88 2089.53 1056.69L2134.5 1169.53C2135.22 1171.35 2134.34 1173.4 2132.53 1174.12C2130.71 1174.84 2128.66 1173.96 2127.94 1172.15" fill="#466EB6"/>
<path d="M2106.5 1157.28L2069.58 1064.64C2068.86 1062.83 2069.74 1060.77 2071.55 1060.05C2073.37 1059.32 2075.42 1060.21 2076.14 1062.03L2113.07 1154.67C2113.79 1156.48 2112.91 1158.53 2111.1 1159.27C2109.29 1159.99 2107.23 1159.11 2106.5 1157.28" fill="#466EB6"/>
<path d="M2101.18 1182.81L2056.19 1069.97C2055.47 1068.16 2056.35 1066.1 2058.17 1065.38C2059.98 1064.65 2062.05 1065.54 2062.77 1067.36L2107.74 1180.2C2108.46 1182.01 2107.58 1184.06 2105.77 1184.78C2103.95 1185.5 2101.9 1184.62 2101.18 1182.81" fill="#466EB6"/>
<path d="M2077.54 1162.4L2042.82 1075.31C2042.1 1073.49 2042.98 1071.44 2044.79 1070.72C2046.61 1069.99 2048.66 1070.88 2049.38 1072.69L2084.1 1159.79C2084.82 1161.6 2083.94 1163.65 2082.13 1164.37C2080.31 1165.09 2078.26 1164.21 2077.54 1162.4Z" fill="#466EB6"/>
<path d="M2126.72 1047.27L2125.82 1045C2125.48 1044.16 2124.58 1043.73 2123.79 1044.05L2106.7 1050.87C2105.91 1051.17 2105.54 1052.12 2105.87 1052.95L2106.78 1055.23C2107.11 1056.05 2108.02 1056.48 2108.8 1056.17L2125.9 1049.36C2126.68 1049.04 2127.06 1048.11 2126.72 1047.27" fill="#355389"/>
<path d="M2130.61 1056.99L2129.7 1054.72C2129.36 1053.88 2128.46 1053.45 2127.66 1053.77L2110.56 1060.59C2109.78 1060.89 2109.42 1061.83 2109.75 1062.67L2110.66 1064.95C2110.99 1065.77 2111.9 1066.2 2112.68 1065.89L2129.78 1059.08C2130.57 1058.76 2130.94 1057.83 2130.61 1056.99" fill="#355389"/>
<path d="M2134.47 1066.7L2133.57 1064.44C2133.23 1063.6 2132.33 1063.17 2131.54 1063.49L2114.45 1070.3C2113.66 1070.61 2113.29 1071.54 2113.62 1072.38L2114.53 1074.66C2114.86 1075.49 2115.77 1075.92 2116.55 1075.61L2133.66 1068.78C2134.43 1068.48 2134.81 1067.54 2134.47 1066.7" fill="#355389"/>
<path d="M2138.35 1076.42L2137.45 1074.16C2137.11 1073.32 2136.21 1072.89 2135.42 1073.21L2118.33 1080.02C2117.54 1080.33 2117.17 1081.26 2117.5 1082.1L2118.41 1084.38C2118.74 1085.21 2119.65 1085.64 2120.43 1085.32L2137.53 1078.5C2138.31 1078.2 2138.69 1077.26 2138.35 1076.42Z" fill="#355389"/>
<path d="M2142.22 1086.14L2141.31 1083.88C2140.98 1083.04 2140.07 1082.61 2139.29 1082.93L2122.19 1089.74C2121.41 1090.05 2121.04 1090.98 2121.36 1091.82L2122.27 1094.09C2122.61 1094.93 2123.53 1095.36 2124.31 1095.04L2141.41 1088.22C2142.19 1087.92 2142.55 1086.98 2142.22 1086.14" fill="#355389"/>
<path d="M2146.1 1095.87L2145.19 1093.6C2144.86 1092.76 2143.95 1092.33 2143.17 1092.65L2126.07 1099.47C2125.29 1099.77 2124.91 1100.71 2125.25 1101.55L2126.15 1103.81C2126.49 1104.65 2127.39 1105.08 2128.18 1104.76L2145.27 1097.95C2146.06 1097.64 2146.43 1096.71 2146.1 1095.87Z" fill="#355389"/>
<path d="M2149.97 1105.59L2149.06 1103.32C2148.73 1102.48 2147.82 1102.05 2147.03 1102.37L2129.94 1109.19C2129.15 1109.49 2128.79 1110.43 2129.13 1111.27L2130.03 1113.53C2130.37 1114.37 2131.27 1114.8 2132.06 1114.48L2149.15 1107.67C2149.94 1107.36 2150.3 1106.43 2149.97 1105.59Z" fill="#355389"/>
<path d="M2153.85 1115.3L2152.94 1113.04C2152.61 1112.2 2151.7 1111.77 2150.91 1112.09L2133.82 1118.9C2133.03 1119.21 2132.66 1120.15 2132.99 1120.99L2133.9 1123.25C2134.23 1124.09 2135.14 1124.52 2135.93 1124.2L2153.02 1117.39C2153.8 1117.08 2154.18 1116.14 2153.85 1115.3Z" fill="#355389"/>
<path d="M2157.71 1125.03L2156.81 1122.76C2156.47 1121.92 2155.57 1121.49 2154.78 1121.81L2137.69 1128.63C2136.9 1128.93 2136.54 1129.87 2136.87 1130.71L2137.78 1132.97C2138.11 1133.81 2139.02 1134.24 2139.81 1133.92L2156.9 1127.11C2157.68 1126.8 2158.05 1125.87 2157.71 1125.03Z" fill="#355389"/>
<path d="M2161.59 1134.75L2160.69 1132.48C2160.35 1131.64 2159.45 1131.21 2158.66 1131.53L2141.57 1138.35C2140.78 1138.65 2140.41 1139.59 2140.74 1140.43L2141.65 1142.69C2141.98 1143.53 2142.89 1143.96 2143.67 1143.64L2160.77 1136.83C2161.55 1136.52 2161.93 1135.59 2161.59 1134.75Z" fill="#355389"/>
<path d="M2165.46 1144.47L2164.55 1142.19C2164.23 1141.36 2163.33 1140.93 2162.53 1141.25L2145.43 1148.07C2144.65 1148.37 2144.29 1149.31 2144.62 1150.15L2145.53 1152.41C2145.86 1153.25 2146.77 1153.68 2147.55 1153.36L2164.65 1146.55C2165.43 1146.24 2165.79 1145.31 2165.46 1144.47Z" fill="#355389"/>
<path d="M2169.34 1154.18L2168.43 1151.9C2168.1 1151.08 2167.19 1150.65 2166.4 1150.96L2149.31 1157.78C2148.53 1158.09 2148.15 1159.02 2148.48 1159.86L2149.39 1162.13C2149.72 1162.97 2150.63 1163.4 2151.42 1163.08L2168.51 1156.26C2169.3 1155.94 2169.67 1155.02 2169.34 1154.18" fill="#355389"/>
<path d="M2216.57 1144.19L2145.09 1245.97C2144.93 1246.2 2144.79 1246.45 2144.71 1246.72L2137.42 1269.08C2136.58 1271.68 2139.58 1273.84 2141.77 1272.19L2160.9 1257.76C2161.14 1257.59 2161.34 1257.37 2161.51 1257.13L2233.18 1155.08C2234.1 1153.77 2233.74 1151.97 2232.39 1151.12L2220.37 1143.43C2219.1 1142.63 2217.43 1142.96 2216.57 1144.19" fill="#B75742"/>
<path d="M2161.43 1257.24L2161.26 1257.49L2142.79 1271.41L2137.77 1268.04L2144.67 1246.84C2150.07 1249.8 2156.55 1252.84 2161.43 1257.24" fill="#F7CC7F"/>
<path d="M1492.37 42.2253C1502.66 50.4387 1520.57 76.8654 1543.39 95.4121C1556.75 106.265 1567.05 103.505 1584.1 105.572C1665.01 115.345 1643.09 131.879 1652.79 133.505C1650.03 139.852 1624.82 193.439 1620.11 204.265C1615.77 214.252 1608.26 218.719 1597.38 217.225C1580.65 214.905 1563.77 213.185 1547.29 209.612C1505.06 200.452 1481.57 179.332 1451.3 153.692C1443.27 146.879 1441.3 138.399 1445.46 128.772C1464.83 84.0119 1490.27 46.3453 1492.37 42.2253" fill="#466EB6"/>
<path d="M1661.55 197.972C1661.19 215.599 1662.54 219.132 1654.96 216.465C1650.4 214.852 1645.99 212.759 1641.68 210.532C1638.66 208.972 1638.54 206.905 1641 204.425C1644.59 200.812 1648.28 197.305 1651.87 193.799C1649.24 186.879 1652.26 178.839 1658.72 175.052C1660.04 174.279 1659.08 175.919 1670.35 149.985C1633.08 145.385 1606.79 142.305 1561.34 136.719C1549.19 135.225 1538.38 130.492 1528.98 122.625C1496.5 95.4653 1464.03 68.2919 1431.59 41.1053C1427.19 37.412 1426.63 31.9986 1430.13 27.8386C1432.81 24.6653 1436.34 24.5054 1440.15 24.9854C1450.52 26.292 1552.25 38.9186 1562.58 40.132C1576.15 41.7186 1588.1 46.8254 1598.59 55.6121C1630.48 82.3321 1662.47 108.945 1694.4 135.599C1698.79 139.265 1699.98 142.625 1698.43 146.692C1696.74 151.159 1693.04 153.292 1687.47 152.092C1683.43 151.212 1681.66 152.439 1680.27 156.172C1674 173.025 1669.63 176.759 1671.14 182.919C1672.31 187.679 1666.66 195.905 1661.55 197.972" fill="#86B1F2"/>
<path d="M1830.31 1395.75L1848.85 1413.43C1892.7 1455.25 1928.46 1504.8 1954.33 1559.59L1957.17 1565.6C1957.17 1565.6 2005.71 1569.89 2012.49 1526C1969.9 1477.92 1934.85 1426.57 1905.91 1369.47L1897.14 1348.95L1830.31 1395.75Z" fill="#466EB6"/>
<path d="M1897.09 1348.89C1899.47 1352.31 1886.46 1365.51 1868.01 1378.36C1849.57 1391.23 1832.59 1399.04 1830.22 1395.63C1827.83 1392.21 1840.94 1378.85 1859.38 1366C1877.82 1353.13 1894.71 1345.47 1897.09 1348.89Z" fill="#86B1F2"/>
<path d="M1897.17 1349.01L1897.11 1348.94C1897.11 1348.94 1860.15 1380.22 1844.93 1383.41L1849.63 1389.81C1855.19 1386.81 1861.51 1382.9 1868.01 1378.36C1886.25 1365.65 1899.17 1352.61 1897.17 1349.01" fill="#355389"/>
<path d="M1946.54 1439.83C1946.61 1445.21 1944.54 1468.49 1905.82 1478.2C1908.37 1481.67 1910.87 1485.17 1913.33 1488.71C1937.83 1481.45 1948.86 1468.88 1953.82 1459.29C1954.59 1457.79 1955.54 1455.75 1956.17 1454.17C1952.9 1449.43 1949.69 1444.65 1946.54 1439.83" fill="#B75742"/>
<path d="M1909.3 1471.32L1852.31 1469.28L1865.82 1480.74L1857.75 1495.38L1911.69 1481.64L1909.3 1471.32" fill="#B75742"/>
<path d="M1914.49 1484.57L1894.25 1519.84L1908.49 1514.43L1913.97 1525.62L1923.49 1488.53L1914.49 1484.57Z" fill="#B75742"/>
<path d="M1922.22 1494.13C1912.22 1494.84 1903.51 1487.05 1902.78 1476.75C1902.05 1466.44 1909.57 1457.51 1919.58 1456.8C1929.58 1456.09 1938.28 1463.88 1939.02 1474.19C1939.75 1484.49 1932.23 1493.43 1922.22 1494.13Z" fill="#F47458"/>
<path d="M2043.18 693.905L1923.18 586.825C1915.38 579.865 1918.62 565.545 1929.38 559.452L2025.15 505.225C2031.29 501.759 2038.19 502.079 2042.63 506.052L2162.63 613.132C2170.43 620.092 2167.19 634.399 2156.43 640.492L2060.66 694.719C2054.53 698.199 2047.62 697.879 2043.18 693.905" fill="#9BC1F9"/>
<path d="M2037.49 608.719L2027.49 526.452C2027.1 523.306 2029.39 519.932 2032.61 518.932C2035.82 517.932 2038.74 519.679 2039.13 522.826L2048.33 598.532L2139.33 620.532C2142.29 621.252 2143.66 624.452 2142.38 627.679C2141.1 630.906 2137.65 632.946 2134.67 632.226L2037.49 608.719" fill="white"/>
<path d="M11.6293 1723.03C5.20663 1723.03 0 1729.05 0 1736.49C0 1743.92 5.20662 1749.95 13.0186 1740.91H2376.51C2379.54 1740.91 2381.99 1736.95 2382.01 1732.03C2382.03 1727.07 2379.57 1723.03 2376.51 1723.03H11.6293Z" fill="#184655"/>
<path d="M470.472 231.879L482.872 256.426L510.899 255.519L522.859 283.999L552.405 273.839L567.352 305.452L595.712 299.439L615.059 327.519L604.432 334.839L589.965 313.852L560.032 320.199L545.672 289.799L515.632 300.132L502.432 268.706L475.072 269.586L463.565 246.839L445.725 251.186L442.672 238.639L470.472 231.879" fill="#F7CC7F"/>
<path d="M1971.21 859.585L1996.67 869.932L2017.21 850.838L2044.94 864.465L2060.54 837.385L2092.58 851.412L2110.02 828.252L2143.05 836.705L2139.85 849.198L2115.15 842.892L2096.75 867.332L2065.95 853.852L2050.09 881.385L2019.49 866.345L1999.43 884.985L1975.83 875.398L1965.22 890.398L1954.69 882.945L1971.21 859.585Z" fill="#50BFA5"/>
</svg>
